<?xml version="1.0" encoding="UTF-8"?>
<svg version="1.1" xmlns="http://www.w3.org/2000/svg" width="216" height="81">
<path d="M0 0 C5.54669848 0.79519655 11.09271065 1.59498301 16.63818359 2.39868164 C18.51724169 2.67039325 20.39646886 2.94093868 22.27587891 3.21020508 C27.67807656 3.98462583 33.0746451 4.78811007 38.46798706 5.62197876 C40.88911859 5.98344577 43.31268469 6.30295991 45.74047852 6.6159668 C55.7436367 8.01802035 55.7436367 8.01802035 58.93505859 10.51245117 C60.26306381 12.36005553 61.10145899 14.07504275 61.9375 16.1875 C62.61616386 17.54873277 63.30631076 18.9043009 64.0078125 20.25390625 C64.33555664 20.90246582 64.66330078 21.55102539 65.00097656 22.21923828 C69.96203917 31.0623445 79.730746 34.65263673 88.875 37.60546875 C108.28969667 41.21003559 129.98162082 35.12445915 147.96484375 28.13671875 C151 27 151 27 153 27 C151.61838885 38.05288917 143.43777864 46.55431035 135.1875 53.375 C124.92314289 60.48731044 113.37787106 61.15024392 101.29296875 59.66796875 C95.19150475 58.22315871 92.66136154 54.54003536 89.41015625 49.375 C88.94480469 48.59125 88.47945313 47.8075 88 47 C85.81569237 43.72353855 85.62727654 43.60220061 82.0625 42.82421875 C81.25965576 42.63972168 80.45681152 42.45522461 79.62963867 42.26513672 C78.32796753 41.97920654 78.32796753 41.97920654 77 41.6875 C50.06454345 35.29276866 21.12480198 24.94621169 2 4 C1.34 3.67 0.68 3.34 0 3 C0 2.01 0 1.02 0 0 Z " fill="#3B2659" transform="translate(0,0)"/>
<path d="M0 0 C25.05493711 3.81094513 25.05493711 3.81094513 29.2109375 8.48828125 C32.80128622 11.7216065 35.64420176 12.15751982 40.3125 12.8125 C41.05306641 12.93302734 41.79363281 13.05355469 42.55664062 13.17773438 C44.36826565 13.46993196 46.18383429 13.73749896 48 14 C48 14.66 48 15.32 48 16 C47.41210693 16.02280029 46.82421387 16.04560059 46.21850586 16.0690918 C31.30840347 16.8440391 23.307181 19.71206035 12.88330078 30.23046875 C9.57229175 33.3414609 5.8631151 35.86983588 2.125 38.4375 C1.04629639 39.18326294 1.04629639 39.18326294 -0.05419922 39.9440918 C-2.03121643 41.30343491 -4.01518132 42.65208898 -6 44 C-6.99128906 44.68707031 -7.98257813 45.37414063 -9.00390625 46.08203125 C-14.72028689 50 -14.72028689 50 -17 50 C-15.62738886 46.92345779 -14.02954579 44.84186187 -11.6875 42.4375 C-7.14124833 37.38926637 -4.37594719 31.36395084 -2.33984375 24.90625 C-0.15397535 21.79632645 3.23366519 20.70789854 6.625 19.25 C7.33140625 18.93417969 8.0378125 18.61835938 8.765625 18.29296875 C10.50533624 17.51715158 12.25203087 16.757028 14 16 C11.70653827 11.67019108 9.97894221 8.44938608 5.875 5.625 C5.19179687 5.14289062 4.50859375 4.66078125 3.8046875 4.1640625 C2.00695673 2.95806049 2.00695673 2.95806049 0 2 C0 1.34 0 0.68 0 0 Z " fill="#ED2448" transform="translate(159,2)"/>
<path d="M0 0 C1.03930664 0.15662109 1.03930664 0.15662109 2.09960938 0.31640625 C3.79742614 0.57400604 5.49276109 0.84787288 7.1875 1.125 C6.16467704 4.42076287 5.15828725 5.1413356 2.0859375 6.859375 C-2.02385938 8.4284542 -5.83425792 8.50074837 -10.1875 8.375 C-11.31393921 8.36617798 -11.31393921 8.36617798 -12.46313477 8.35717773 C-16.34672539 8.30033238 -19.93938761 7.98507004 -23.75 7.1875 C-27.67999381 6.63684828 -29.52040188 7.96237687 -32.6875 10.25 C-33.5125 10.89453125 -34.3375 11.5390625 -35.1875 12.203125 C-42.47131665 17.53591933 -50.77887053 20.72724196 -59.8125 20.125 C-65.5041964 18.92500985 -69.10627386 16.54299129 -72.69140625 11.9765625 C-74.23722391 9.42353961 -74.66826332 7.08185198 -74.8125 4.125 C-71.8125 5.125 -71.8125 5.125 -70.625 7.4375 C-68.16949649 11.078419 -65.01669364 12.88230169 -60.8125 14.125 C-59.4925 13.795 -58.1725 13.465 -56.8125 13.125 C-56.4825 10.155 -56.1525 7.185 -55.8125 4.125 C-54.8225 4.455 -53.8325 4.785 -52.8125 5.125 C-52.4825 7.765 -52.1525 10.405 -51.8125 13.125 C-43.56827314 10.50533913 -36.01700336 7.32950336 -29.8125 1.125 C-26.25377846 1.00600409 -22.75303688 1.08248815 -19.19726562 1.203125 C-14.61811044 1.31845814 -14.61811044 1.31845814 -10.2578125 0.0703125 C-6.74081074 -1.28929521 -3.61577446 -0.6020524 0 0 Z " fill="#ED2649" transform="translate(102.8125,60.875)"/>
<path d="M0 0 C1.82421875 2.65234375 1.82421875 2.65234375 3.6875 5.9375 C4.31011719 7.01902344 4.93273437 8.10054687 5.57421875 9.21484375 C7 12 7 12 7 14 C7.78503906 13.79503906 8.57007813 13.59007813 9.37890625 13.37890625 C10.42949219 13.10949219 11.48007813 12.84007813 12.5625 12.5625 C13.59503906 12.29566406 14.62757813 12.02882813 15.69140625 11.75390625 C29.76663318 8.54668217 49.45728587 7.08247659 62.421875 14.359375 C66.27514338 17.01020502 68.88738941 19.27140501 70 24 C69.29423828 23.47599609 69.29423828 23.47599609 68.57421875 22.94140625 C67.64029297 22.25884766 67.64029297 22.25884766 66.6875 21.5625 C66.07261719 21.11003906 65.45773438 20.65757813 64.82421875 20.19140625 C59.37094042 16.62984332 52.23139146 17.59536419 46 18 C42.7855965 18.73914091 40.05995457 19.7338119 37 21 C38.15173355 18.53199953 39.04783565 16.95216435 41 15 C28.45895862 14.36944485 17.19839573 16.20036819 5 19 C3.01208727 16.75722666 1.0347098 14.50651246 -0.9375 12.25 C-1.78344727 11.29867187 -1.78344727 11.29867187 -2.64648438 10.328125 C-3.18466797 9.709375 -3.72285156 9.090625 -4.27734375 8.453125 C-4.77484131 7.88754883 -5.27233887 7.32197266 -5.78491211 6.73925781 C-7.11613452 4.83376687 -7.58027466 3.2704314 -8 1 C-3.375 -1.125 -3.375 -1.125 0 0 Z " fill="#EE2B4C" transform="translate(146,56)"/>
<path d="M0 0 C14.244179 6.80398128 26.5016958 13.9648718 37 26 C37 26.66 37 27.32 37 28 C25.58348264 27.42917413 16.45547466 23.42668286 8.203125 15.48046875 C4.32748796 11.11694123 0 6.02982995 0 0 Z " fill="#ED2347" transform="translate(61,9)"/>
<path d="M0 0 C2.86392726 2.37670312 4.50064247 4.4089805 5.375 8.125 C4.90449219 7.77566406 4.43398437 7.42632812 3.94921875 7.06640625 C3.32660156 6.61136719 2.70398438 6.15632813 2.0625 5.6875 C1.44761719 5.23503906 0.83273438 4.78257813 0.19921875 4.31640625 C-5.25405958 0.75484332 -12.39360854 1.72036419 -18.625 2.125 C-21.8394035 2.86414091 -24.56504543 3.8588119 -27.625 5.125 C-26.47326645 2.65699953 -25.57716435 1.07716435 -23.625 -0.875 C-30.555 -1.37 -30.555 -1.37 -37.625 -1.875 C-37.625 -2.205 -37.625 -2.535 -37.625 -2.875 C-29.705 -3.37 -29.705 -3.37 -21.625 -3.875 C-29.545 -3.875 -37.465 -3.875 -45.625 -3.875 C-45.625 -4.205 -45.625 -4.535 -45.625 -4.875 C-31.24962301 -7.33368517 -12.46138366 -8.57272493 0 0 Z " fill="#F04765" transform="translate(210.625,71.875)"/>
<path d="M0 0 C3 1 3 1 4.1875 3.3125 C6.64300351 6.953419 9.79580636 8.75730169 14 10 C16.13716538 9.89423962 16.13716538 9.89423962 18 9 C18.66 8.01 19.32 7.02 20 6 C20 7.98 20 9.96 20 12 C21.98 12.66 23.96 13.32 26 14 C21.81982664 16.67531095 17.75474956 16.58611693 12.98046875 15.5703125 C7.49778567 13.87204355 3.97456349 10.91269371 1 6 C0.125 2.5625 0.125 2.5625 0 0 Z " fill="#F04766" transform="translate(28,65)"/>
<path d="M0 0 C2.97 0 5.94 0 9 0 C9.33 0.99 9.66 1.98 10 3 C15.94 2.505 15.94 2.505 22 2 C21.01 3.485 21.01 3.485 20 5 C17.11987249 5.30411284 14.50151952 5.41800444 11.625 5.375 C10.47257812 5.39240234 10.47257812 5.39240234 9.296875 5.41015625 C5.7184407 5.39158306 3.58064164 5.34838498 0.4609375 3.4765625 C-0.02117187 2.98929687 -0.50328125 2.50203125 -1 2 C-0.67 1.34 -0.34 0.68 0 0 Z " fill="#EE324F" transform="translate(81,64)"/>
<path d="M0 0 C0.86560547 0.00451172 1.73121094 0.00902344 2.62304688 0.01367188 C4.72789539 0.02530087 6.83270758 0.04322927 8.9375 0.0625 C5.23819321 2.52870453 2.16920935 2.46933016 -2.125 2.625 C-7.2502349 2.6345361 -7.2502349 2.6345361 -12.0625 4.0625 C-13.76952735 4.13246014 -15.47918003 4.14690154 -17.1875 4.125 C-18.09757813 4.11597656 -19.00765625 4.10695313 -19.9453125 4.09765625 C-20.64398438 4.08605469 -21.34265625 4.07445313 -22.0625 4.0625 C-19.13318243 0.63740763 -16.91966401 0.5337973 -12.59423828 0.18408203 C-8.39296933 -0.01767611 -4.20521848 -0.04241105 0 0 Z " fill="#EA0726" transform="translate(183.0625,66.9375)"/>
<path d="M0 0 C1.125 3.75 1.125 3.75 0 6 C0.99 6 1.98 6 3 6 C1.69467452 9.91597644 0.02734726 10.53830346 -3.4375 12.6875 C-4.42621094 13.31011719 -5.41492188 13.93273438 -6.43359375 14.57421875 C-9 16 -9 16 -11 16 C-9.20893191 11.98800747 -6.6085779 9.20252518 -3.65625 6 C-2.06105306 4.07372445 -1.01567082 2.27510263 0 0 Z " fill="#EF3D5B" transform="translate(153,36)"/>
<path d="M0 0 C9.41002278 0.96355353 9.41002278 0.96355353 14 2 C14 2.66 14 3.32 14 4 C6.66236293 5.17402193 -0.58165418 5.09377123 -8 5 C-7.67 4.34 -7.34 3.68 -7 3 C-4.67843403 2.59270772 -2.3431213 2.25561323 0 2 C0 1.34 0 0.68 0 0 Z " fill="#F04561" transform="translate(193,14)"/>
<path d="M0 0 C0.33 0.66 0.66 1.32 1 2 C2.0725 1.649375 3.145 1.29875 4.25 0.9375 C8.92307692 -0.23076923 8.92307692 -0.23076923 12 1 C11.01 1.495 11.01 1.495 10 2 C11.32 2.66 12.64 3.32 14 4 C6.575 5.485 6.575 5.485 -1 7 C-1.33 5.68 -1.66 4.36 -2 3 C-1.34 2.01 -0.68 1.02 0 0 Z " fill="#EF3958" transform="translate(152,68)"/>
<path d="M0 0 C2.6274838 1.28680869 5.25196683 2.57917678 7.875 3.875 C8.62136719 4.23980469 9.36773437 4.60460937 10.13671875 4.98046875 C10.85214844 5.33496094 11.56757812 5.68945312 12.3046875 6.0546875 C12.96452637 6.37937012 13.62436523 6.70405273 14.30419922 7.03857422 C16 8 16 8 18 10 C13.86043846 9.39124095 10.70717496 7.89477831 7 6 C6.34 6 5.68 6 5 6 C4.67 7.32 4.34 8.64 4 10 C0 3.375 0 3.375 0 0 Z " fill="#F0526C" transform="translate(61,9)"/>
<path d="M0 0 C4.62272814 1.49558852 7.52369849 3.68171219 11 7 C11.671875 9.1640625 11.671875 9.1640625 12 11 C11.52949219 10.65066406 11.05898437 10.30132812 10.57421875 9.94140625 C9.95160156 9.48636719 9.32898438 9.03132813 8.6875 8.5625 C8.07261719 8.11003906 7.45773438 7.65757813 6.82421875 7.19140625 C3.31414874 4.89896224 -0.10231382 4.74498713 -4.1875 4.4375 C-5.27417969 4.35371094 -6.36085937 4.26992187 -7.48046875 4.18359375 C-8.31191406 4.12300781 -9.14335937 4.06242187 -10 4 C-10 3.67 -10 3.34 -10 3 C-6.7 3 -3.4 3 0 3 C0 2.01 0 1.02 0 0 Z " fill="#F47285" transform="translate(204,69)"/>
<path d="M0 0 C0.99 0.33 1.98 0.66 3 1 C3.33 3.64 3.66 6.28 4 9 C6.97 8.34 9.94 7.68 13 7 C12.34 8.32 11.68 9.64 11 11 C10.34 11 9.68 11 9 11 C9 11.66 9 12.32 9 13 C6.69 12.67 4.38 12.34 2 12 C1.34 8.04 0.68 4.08 0 0 Z " fill="#EF3959" transform="translate(47,65)"/>
<path d="M0 0 C8.91 1.485 8.91 1.485 18 3 C18 3.33 18 3.66 18 4 C15.69 4 13.38 4 11 4 C10.67 4.66 10.34 5.32 10 6 C6.05879291 5.43697042 3.2491277 4.3208055 0 2 C0 1.34 0 0.68 0 0 Z " fill="#F25771" transform="translate(159,2)"/>
<path d="M0 0 C3 1 3 1 4.375 3.3125 C6.19131134 6.31639952 8.18448626 7.94543592 11 10 C10.01 10.33 9.02 10.66 8 11 C7.67 10.01 7.34 9.02 7 8 C5.68 8.33 4.36 8.66 3 9 C0 2.25 0 2.25 0 0 Z " fill="#F2576E" transform="translate(28,65)"/>
<path d="M0 0 C0.99 0 1.98 0 3 0 C3 0.66 3 1.32 3 2 C4.32 2.33 5.64 2.66 7 3 C5.68 3 4.36 3 3 3 C2.67 3.99 2.34 4.98 2 6 C0.35 6.33 -1.3 6.66 -3 7 C-2.25 2.25 -2.25 2.25 0 0 Z " fill="#ED2444" transform="translate(72,63)"/>
<path d="M0 0 C0.6875 2.0625 0.6875 2.0625 1 4 C-0.32 3.67 -1.64 3.34 -3 3 C-3.66 4.32 -4.32 5.64 -5 7 C-6.5 5.6875 -6.5 5.6875 -8 4 C-8 3.01 -8 2.02 -8 1 C-3.375 -1.125 -3.375 -1.125 0 0 Z " fill="#F05069" transform="translate(146,56)"/>
<path d="M0 0 C4.95 0.33 9.9 0.66 15 1 C15 1.33 15 1.66 15 2 C12.69 2 10.38 2 8 2 C8 2.66 8 3.32 8 4 C8.66 4.66 9.32 5.32 10 6 C7.36 5.67 4.72 5.34 2 5 C2 3.68 2 2.36 2 1 C1.34 0.67 0.68 0.34 0 0 Z " fill="#F25773" transform="translate(73,62)"/>
<path d="M0 0 C-0.99 0.495 -0.99 0.495 -2 1 C-0.68 1.66 0.64 2.32 2 3 C-2.455 3.495 -2.455 3.495 -7 4 C-7.33 2.68 -7.66 1.36 -8 0 C-4.94736336 -0.98120464 -3.05263664 -0.98120464 0 0 Z " fill="#F15672" transform="translate(164,69)"/>
<path d="M0 0 C2.97 0 5.94 0 9 0 C9.33 0.99 9.66 1.98 10 3 C6.7 2.67 3.4 2.34 0 2 C0 1.34 0 0.68 0 0 Z " fill="#EC113A" transform="translate(81,64)"/>
<path d="M0 0 C-0.60698743 4.12751449 -2.03810791 7.3321148 -4 11 C-4.33 9.68 -4.66 8.36 -5 7 C-4.34 7 -3.68 7 -3 7 C-3 5.35 -3 3.7 -3 2 C-3.66 1.67 -4.32 1.34 -5 1 C-2 0 -2 0 0 0 Z " fill="#6C5F82" transform="translate(153,27)"/>
<path d="M0 0 C0.99 0.33 1.98 0.66 3 1 C3.22786458 3.01822917 3.45572917 5.03645833 3.68359375 7.0546875 C3.91292961 9.07404316 3.91292961 9.07404316 5 11 C4.01 11.33 3.02 11.66 2 12 C1.34 8.04 0.68 4.08 0 0 Z " fill="#F46B81" transform="translate(47,65)"/>
<path d="M0 0 C0 0.33 0 0.66 0 1 C-2.97851562 1.34179688 -2.97851562 1.34179688 -5.95703125 1.68359375 C-8.19396393 1.97170735 -8.19396393 1.97170735 -11 3 C-11.99 2.34 -12.98 1.68 -14 1 C-9.22426677 -1.61895048 -5.15565119 -0.83119431 0 0 Z " fill="#F36B83" transform="translate(104,61)"/>
<path d="M0 0 C-0.33 0.66 -0.66 1.32 -1 2 C-5.95 2 -10.9 2 -16 2 C-16 1.67 -16 1.34 -16 1 C-14.0852312 0.63571223 -12.16807707 0.28394694 -10.25 -0.0625 C-9.18265625 -0.25972656 -8.1153125 -0.45695312 -7.015625 -0.66015625 C-4.25228095 -0.97156937 -2.59053383 -0.8991416 0 0 Z " fill="#7E7092" transform="translate(125,37)"/>
<path d="M0 0 C5.28137429 0.51525603 8.57221156 2.25477117 13 5 C10.34501768 6.0169313 9.30844625 6.13022151 6.640625 5.00390625 C5.85171875 4.52824219 5.0628125 4.05257813 4.25 3.5625 C3.45078125 3.08941406 2.6515625 2.61632812 1.828125 2.12890625 C1.22484375 1.75636719 0.6215625 1.38382813 0 1 C0 0.67 0 0.34 0 0 Z " fill="#F0415C" transform="translate(66,13)"/>
<path d="M0 0 C0.99 0 1.98 0 3 0 C3.66 0.66 4.32 1.32 5 2 C6.31747324 2.69748583 7.64914193 3.36959957 9 4 C6.1875 4.6875 6.1875 4.6875 3 5 C1.125 3.6875 1.125 3.6875 0 2 C0 1.34 0 0.68 0 0 Z " fill="#EC2040" transform="translate(32,73)"/>
<path d="M0 0 C1.9375 0.8125 1.9375 0.8125 4 2 C4.33 2.99 4.66 3.98 5 5 C2.03 4.67 -0.94 4.34 -4 4 C-2.68 2.68 -1.36 1.36 0 0 Z " fill="#F15B74" transform="translate(93,32)"/>
<path d="M0 0 C4.16138263 -0.08159574 7.9472484 0.01751476 12 1 C12 1.33 12 1.66 12 2 C3.57142857 3.28571429 3.57142857 3.28571429 -1 2 C-0.67 1.34 -0.34 0.68 0 0 Z " fill="#51406C" transform="translate(45,8)"/>
<path d="M0 0 C0.33 0.66 0.66 1.32 1 2 C1.66 2.33 2.32 2.66 3 3 C-2.75 7 -2.75 7 -5 7 C-3.70700306 4.11562221 -2.34058637 2.12780579 0 0 Z " fill="#F47A8C" transform="translate(147,45)"/>
<path d="M0 0 C2.88575819 0.39803561 3.82189513 0.79009069 5.75 3.0625 C6.1625 3.701875 6.575 4.34125 7 5 C6.67 5.66 6.34 6.32 6 7 C3.95880212 5.38405168 1.95927063 3.7143618 0 2 C0 1.34 0 0.68 0 0 Z " fill="#F15D6D" transform="translate(209,73)"/>
<path d="M0 0 C2.475 0.99 2.475 0.99 5 2 C2.06279492 3.52299523 -0.9168649 4.80100302 -4 6 C-2.84826645 3.53199953 -1.95216435 1.95216435 0 0 Z " fill="#F46F85" transform="translate(187,71)"/>
<path d="M0 0 C3.0417096 0.28516028 4.39045802 1.26030535 7 3 C3.7 3 0.4 3 -3 3 C-2.01 2.01 -1.02 1.02 0 0 Z " fill="#ED2B4A" transform="translate(164,68)"/>
<path d="M0 0 C-0.33 0.99 -0.66 1.98 -1 3 C-5.455 2.01 -5.455 2.01 -10 1 C-5.64467851 -1.17766075 -4.53374042 -1.03039555 0 0 Z " fill="#5A4974" transform="translate(87,41)"/>
<path d="M0 0 C1.98 0 3.96 0 6 0 C5.34 1.32 4.68 2.64 4 4 C3.01 3.67 2.02 3.34 1 3 C0.67 2.01 0.34 1.02 0 0 Z " fill="#F04F68" transform="translate(104,62)"/>
<path d="M0 0 C0.66 0.33 1.32 0.66 2 1 C2.33 1.99 2.66 2.98 3 4 C1.35 4.33 -0.3 4.66 -2 5 C-1.125 1.125 -1.125 1.125 0 0 Z " fill="#ED2544" transform="translate(150,42)"/>
<path d="M0 0 C-1.13719419 3.41158256 -2.04342944 4.11854601 -5 6 C-5.66 6 -6.32 6 -7 6 C-5.52522876 2.59668175 -4.14385429 0 0 0 Z " fill="#EE3A57" transform="translate(167,34)"/>
</svg>
