<?xml version="1.0" encoding="UTF-8"?>
<svg version="1.1" xmlns="http://www.w3.org/2000/svg" width="470" height="201">
<path d="M0 0 C1.27423828 -0.00193359 1.27423828 -0.00193359 2.57421875 -0.00390625 C3.91419922 0.00189453 3.91419922 0.00189453 5.28125 0.0078125 C6.17457031 0.00394531 7.06789063 0.00007813 7.98828125 -0.00390625 C8.83777344 -0.00261719 9.68726563 -0.00132813 10.5625 0 C11.34689453 0.00112793 12.13128906 0.00225586 12.93945312 0.00341797 C14.78125 0.1328125 14.78125 0.1328125 15.78125 1.1328125 C15.87429018 2.60635598 15.89871265 4.08431841 15.89477539 5.56079102 C15.89469986 6.50169083 15.89462433 7.44259064 15.89454651 8.41200256 C15.88938522 9.43490891 15.88422394 10.45781525 15.87890625 11.51171875 C15.8774913 12.55351791 15.87607635 13.59531708 15.87461853 14.66868591 C15.8690008 18.01092344 15.8564453 21.35309507 15.84375 24.6953125 C15.83873728 26.95507716 15.83417398 29.21484287 15.83007812 31.47460938 C15.81902561 37.02736641 15.80227024 42.58008475 15.78125 48.1328125 C18.77387825 45.22883595 21.48642127 42.39106732 23.859375 38.9609375 C24.38015625 38.21457031 24.9009375 37.46820313 25.4375 36.69921875 C25.9634375 35.93480469 26.489375 35.17039063 27.03125 34.3828125 C28.09823231 32.84584989 29.16590353 31.30936524 30.234375 29.7734375 C30.93288574 28.76071777 30.93288574 28.76071777 31.64550781 27.72753906 C32.78125 26.1328125 32.78125 26.1328125 33.78125 25.1328125 C35.34297745 25.04595647 36.90854344 25.02579031 38.47265625 25.03515625 C39.41689453 25.03837891 40.36113281 25.04160156 41.33398438 25.04492188 C42.32720703 25.05330078 43.32042969 25.06167969 44.34375 25.0703125 C45.34083984 25.07482422 46.33792969 25.07933594 47.36523438 25.08398438 C49.83729849 25.09581243 52.30924518 25.11229401 54.78125 25.1328125 C53.51085484 28.60864403 52.04651837 31.41109833 49.84765625 34.3828125 C49.28111328 35.15625 48.71457031 35.9296875 48.13085938 36.7265625 C47.54111328 37.520625 46.95136719 38.3146875 46.34375 39.1328125 C41.27152777 45.93834221 41.27152777 45.93834221 36.78125 53.1328125 C37.8992567 54.75900406 39.01730038 56.38517021 40.13549805 58.01123047 C41.11543426 59.43692036 42.09475432 60.86303394 43.07348633 62.28955078 C45.68843523 66.09896188 48.31352173 69.90056575 50.9609375 73.6875 C51.46520264 74.41195312 51.96946777 75.13640625 52.48901367 75.8828125 C53.4646208 77.28384937 54.44387343 78.68235572 55.42700195 80.078125 C58.78125 84.90794769 58.78125 84.90794769 58.78125 87.1328125 C38.60108387 89.08500518 38.60108387 89.08500518 32.53125 84.8828125 C30.24131003 81.7423234 28.50444056 78.614521 26.78125 75.1328125 C25.38434064 72.85729532 23.89876076 70.66146484 22.40625 68.4453125 C21.77976562 67.45144531 21.15328125 66.45757812 20.5078125 65.43359375 C18.91973222 62.86286954 18.91973222 62.86286954 15.78125 62.1328125 C15.78125 70.3828125 15.78125 78.6328125 15.78125 87.1328125 C8.85125 87.1328125 1.92125 87.1328125 -5.21875 87.1328125 C-5.24130037 75.93707647 -5.2596647 64.7413554 -5.27056217 53.54560184 C-5.27579116 48.34753135 -5.2828891 43.14947714 -5.29418945 37.95141602 C-5.30501776 32.93938982 -5.31102671 27.92737932 -5.31362724 22.91534233 C-5.31548159 20.99868968 -5.3191024 19.08203793 -5.32448006 17.16539192 C-5.33168975 14.49053178 -5.33274097 11.81573736 -5.33227539 9.14086914 C-5.33587067 8.3403009 -5.33946594 7.53973267 -5.34317017 6.71490479 C-5.3304525 0.00766499 -5.3304525 0.00766499 0 0 Z " fill="#ED2348" transform="translate(332.21875,79.8671875)"/>
<path d="M0 0 C1.47932007 -0.02610352 1.47932007 -0.02610352 2.98852539 -0.05273438 C10.30865027 -0.04776779 15.25419018 0.82446483 20.9375 5.75 C26.68935628 12.48788879 26.27628965 20.01439325 26.2578125 28.48828125 C26.25876923 29.45404587 26.25972595 30.41981049 26.26071167 31.4148407 C26.2613898 33.44623887 26.2595612 35.47763924 26.25537109 37.5090332 C26.24998841 40.63172191 26.25534342 43.75426869 26.26171875 46.87695312 C26.26105848 48.85156282 26.25977837 50.82617242 26.2578125 52.80078125 C26.25983673 53.73924393 26.26186096 54.6777066 26.26394653 55.64460754 C26.25921829 56.93681465 26.25921829 56.93681465 26.25439453 58.25512695 C26.25359894 59.01646439 26.25280334 59.77780182 26.25198364 60.56221008 C26.125 62.3125 26.125 62.3125 25.125 63.3125 C23.78232587 63.39881874 22.43525678 63.41956473 21.08984375 63.41015625 C20.28095703 63.40693359 19.47207031 63.40371094 18.63867188 63.40039062 C17.78853516 63.39201172 16.93839844 63.38363281 16.0625 63.375 C15.20849609 63.37048828 14.35449219 63.36597656 13.47460938 63.36132812 C11.35804337 63.34950373 9.24151315 63.33156769 7.125 63.3125 C6.63 60.3425 6.63 60.3425 6.125 57.3125 C5.465 57.3125 4.805 57.3125 4.125 57.3125 C3.795 58.3025 3.465 59.2925 3.125 60.3125 C-1.79383474 64.2449374 -7.2063642 64.89102584 -13.328125 64.62890625 C-18.47870524 63.98903355 -21.08695196 62.13636841 -24.625 58.4375 C-29.27105714 51.98464286 -29.68272287 46.09692914 -28.875 38.3125 C-27.52818012 33.57567325 -25.66726076 30.94307489 -21.8125 27.875 C-17.97561478 25.83410361 -15.27007156 25.18889351 -10.98828125 25.21484375 C-10.05048828 25.21806641 -9.11269531 25.22128906 -8.14648438 25.22460938 C-7.17001953 25.23298828 -6.19355469 25.24136719 -5.1875 25.25 C-4.19943359 25.25451172 -3.21136719 25.25902344 -2.19335938 25.26367188 C0.24615474 25.27545697 2.68554689 25.29190989 5.125 25.3125 C4.465 23.0025 3.805 20.6925 3.125 18.3125 C-0.37054607 17.51369775 -3.55849383 17.20325961 -7.140625 17.25 C-8.59855469 17.26160156 -8.59855469 17.26160156 -10.0859375 17.2734375 C-11.08882812 17.28632812 -12.09171875 17.29921875 -13.125 17.3125 C-15.13015592 17.33788172 -17.13537261 17.35895798 -19.140625 17.375 C-20.02524414 17.38660156 -20.90986328 17.39820312 -21.82128906 17.41015625 C-23.875 17.3125 -23.875 17.3125 -24.875 16.3125 C-24.94771741 13.95936445 -24.95870868 11.60416332 -24.9375 9.25 C-24.92847656 7.95964844 -24.91945312 6.66929688 -24.91015625 5.33984375 C-24.89855469 4.34082031 -24.88695312 3.34179688 -24.875 2.3125 C-16.58159581 0.52965687 -8.45973815 0.06982087 0 0 Z M-7.875 39.3125 C-8.04177282 42.72906024 -8.04177282 42.72906024 -7.875 46.3125 C-5.94332602 48.66063734 -5.94332602 48.66063734 -2.5 48.6875 C1.09364031 48.59063411 1.09364031 48.59063411 3.5625 46.75 C5.6498128 43.49379203 5.4165423 41.10254984 5.125 37.3125 C3.70876784 37.25802953 2.29191809 37.21949492 0.875 37.1875 C-0.30835938 37.15269531 -0.30835938 37.15269531 -1.515625 37.1171875 C-4.08231941 37.3296622 -5.6666067 38.02595895 -7.875 39.3125 Z " fill="#ED2046" transform="translate(183.875,103.6875)"/>
<path d="M0 0 C6.93 0 13.86 0 21 0 C21.33 15.18 21.66 30.36 22 46 C24.97 46 27.94 46 31 46 C34.26095107 42.80353716 34.26095107 42.80353716 34.43237305 38.7121582 C34.45216721 37.85149246 34.47196136 36.99082672 34.49235535 36.1040802 C34.49874527 35.17899155 34.50513519 34.25390289 34.51171875 33.30078125 C34.52966995 32.35059616 34.54762115 31.40041107 34.56611633 30.4214325 C34.62031893 27.38516687 34.65414704 24.34905933 34.6875 21.3125 C34.72066428 19.25453525 34.7551531 17.19659138 34.79101562 15.13867188 C34.87854635 10.09242391 34.93852996 5.04690235 35 0 C41.93 0 48.86 0 56 0 C56.02255473 7.9361421 56.04091723 15.87225946 56.05181217 23.80842495 C56.05704008 27.49314498 56.06413605 31.17784203 56.07543945 34.86254883 C56.08627162 38.41570831 56.09227753 41.96884563 56.09487724 45.52202034 C56.0967309 46.88045666 56.10035038 48.23889171 56.10573006 49.59731865 C56.11294475 51.49382223 56.11340809 53.39034793 56.11352539 55.28686523 C56.115746 56.36830307 56.11796661 57.44974091 56.12025452 58.56394958 C56 61 56 61 55 62 C53.65732587 62.08631874 52.31025678 62.10706473 50.96484375 62.09765625 C50.15595703 62.09443359 49.34707031 62.09121094 48.51367188 62.08789062 C47.66353516 62.07951172 46.81339844 62.07113281 45.9375 62.0625 C45.08349609 62.05798828 44.22949219 62.05347656 43.34960938 62.04882812 C41.23304337 62.03700373 39.11651315 62.01906769 37 62 C36.505 59.03 36.505 59.03 36 56 C35.07767578 56.63228516 35.07767578 56.63228516 34.13671875 57.27734375 C33.32847656 57.82519531 32.52023437 58.37304688 31.6875 58.9375 C30.88699219 59.48277344 30.08648437 60.02804688 29.26171875 60.58984375 C24.16077455 63.7702252 18.82374698 63.45119417 13 63 C7.8044029 61.2681343 5.09830455 58.47532879 2 54 C-0.24698158 47.9907098 -0.26157155 42.40226296 -0.1953125 36.03515625 C-0.1924826 35.00184677 -0.18965271 33.96853729 -0.18673706 32.90391541 C-0.17559647 29.62332278 -0.15050304 26.34300927 -0.125 23.0625 C-0.1149623 20.83008208 -0.10583783 18.59765986 -0.09765625 16.36523438 C-0.07738397 10.90996379 -0.03822314 5.4552921 0 0 Z " fill="#ED2047" transform="translate(263,105)"/>
<path d="M0 0 C5.54669848 0.79519655 11.09271065 1.59498301 16.63818359 2.39868164 C18.51724169 2.67039325 20.39646886 2.94093868 22.27587891 3.21020508 C27.67807656 3.98462583 33.0746451 4.78811007 38.46798706 5.62197876 C40.88911859 5.98344577 43.31268469 6.30295991 45.74047852 6.6159668 C55.7436367 8.01802035 55.7436367 8.01802035 58.93505859 10.51245117 C60.26306381 12.36005553 61.10145899 14.07504275 61.9375 16.1875 C62.61616386 17.54873277 63.30631076 18.9043009 64.0078125 20.25390625 C64.33555664 20.90246582 64.66330078 21.55102539 65.00097656 22.21923828 C69.96203917 31.0623445 79.730746 34.65263673 88.875 37.60546875 C108.28969667 41.21003559 129.98162082 35.12445915 147.96484375 28.13671875 C151 27 151 27 153 27 C151.61838885 38.05288917 143.43777864 46.55431035 135.1875 53.375 C124.92314289 60.48731044 113.37787106 61.15024392 101.29296875 59.66796875 C95.19150475 58.22315871 92.66136154 54.54003536 89.41015625 49.375 C88.94480469 48.59125 88.47945313 47.8075 88 47 C85.81569237 43.72353855 85.62727654 43.60220061 82.0625 42.82421875 C81.25965576 42.63972168 80.45681152 42.45522461 79.62963867 42.26513672 C78.32796753 41.97920654 78.32796753 41.97920654 77 41.6875 C50.06454345 35.29276866 21.12480198 24.94621169 2 4 C1.34 3.67 0.68 3.34 0 3 C0 2.01 0 1.02 0 0 Z " fill="#3B2759" transform="translate(7,5)"/>
<path d="M0 0 C1.41345703 -0.01160156 1.41345703 -0.01160156 2.85546875 -0.0234375 C17.89316054 0.01816054 17.89316054 0.01816054 21.125 3.25 C21.19758946 5.43639453 21.20873783 7.62500389 21.1875 9.8125 C21.17847656 11.01003906 21.16945313 12.20757812 21.16015625 13.44140625 C21.14855469 14.36824219 21.13695312 15.29507813 21.125 16.25 C20.48473877 16.26981934 19.84447754 16.28963867 19.18481445 16.31005859 C16.2686472 16.40563601 13.35316428 16.51518214 10.4375 16.625 C9.43009766 16.6559375 8.42269531 16.686875 7.38476562 16.71875 C6.40830078 16.75742188 5.43183594 16.79609375 4.42578125 16.8359375 C3.53028564 16.8673584 2.63479004 16.8987793 1.7121582 16.93115234 C-1.09092507 17.27661113 -3.30764531 18.09681468 -5.875 19.25 C-5.875 20.24 -5.875 21.23 -5.875 22.25 C-4.885 22.42015625 -3.895 22.5903125 -2.875 22.765625 C7.53435733 24.63846582 15.79236363 26.23079062 22.125 35.25 C23.91321074 40.61463221 24.10633485 46.96903109 22.4765625 52.41796875 C20.1805571 56.86279972 16.58757644 60.10700016 12.125 62.25 C6.08639405 64.11955761 0.610567 64.56802538 -5.6875 64.5 C-6.56390137 64.49540771 -7.44030273 64.49081543 -8.34326172 64.48608398 C-22.80721205 64.28389397 -22.80721205 64.28389397 -28.875 61.25 C-28.875 56.63 -28.875 52.01 -28.875 47.25 C-19.635 46.92 -10.395 46.59 -0.875 46.25 C-0.215 44.93 0.445 43.61 1.125 42.25 C-0.009375 42.01925781 -1.14375 41.78851563 -2.3125 41.55078125 C-11.71857568 39.54986569 -19.48584656 37.86423823 -26.3125 30.6875 C-29.34671363 25.95412674 -29.5069288 20.73875298 -28.875 15.25 C-27.2742115 9.84974964 -24.53844746 6.4358256 -19.94921875 3.2578125 C-13.37153862 0.06187752 -7.19149305 -0.05854675 0 0 Z " fill="#ED2147" transform="translate(422.875,103.75)"/>
<path d="M0 0 C3.63 0 7.26 0 11 0 C11 5.61 11 11.22 11 17 C15.62 17 20.24 17 25 17 C25.02685095 19.47923801 25.04676547 21.9581884 25.0625 24.4375 C25.07087891 25.14455078 25.07925781 25.85160156 25.08789062 26.58007812 C25.09653588 28.38693559 25.05220011 30.19387603 25 32 C24 33 24 33 21.05859375 33.09765625 C19.86363281 33.08605469 18.66867188 33.07445312 17.4375 33.0625 C15.64119141 33.04896484 15.64119141 33.04896484 13.80859375 33.03515625 C12.88175781 33.02355469 11.95492187 33.01195312 11 33 C11.11798944 36.96952899 11.24221799 40.93880781 11.37231445 44.90795898 C11.41571223 46.25914147 11.4573837 47.61038053 11.49731445 48.96166992 C11.55489952 50.90036701 11.61914298 52.83886276 11.68359375 54.77734375 C11.72025146 55.94515381 11.75690918 57.11296387 11.79467773 58.31616211 C11.70076188 60.91779795 11.70076188 60.91779795 13 62 C15.01594582 62.23427778 17.038474 62.41336124 19.0625 62.5625 C21.021875 62.706875 22.98125 62.85125 25 63 C25 67.62 25 72.24 25 77 C17.5679495 80.49743553 9.54374034 81.62896635 1.52734375 79.2734375 C-2.69494621 77.33197333 -5.45962439 74.96298596 -8 71 C-9.23180134 67.30459598 -9.12412112 63.89696622 -9.09765625 60.05078125 C-9.0962413 59.27816452 -9.09482635 58.50554779 -9.09336853 57.70951843 C-9.08777466 55.24380611 -9.07522333 52.77818485 -9.0625 50.3125 C-9.05748421 48.63997527 -9.05292144 46.96744912 -9.04882812 45.29492188 C-9.03780724 41.19657954 -9.02054684 37.09830521 -9 33 C-10.299375 33.020625 -11.59875 33.04125 -12.9375 33.0625 C-14.29165633 33.08399454 -15.64756083 33.07148199 -17 33 C-18.73749107 31.26250893 -18.294321 28.98951518 -18.375 26.625 C-18.3515625 23.60546875 -18.3515625 23.60546875 -18 21 C-15.75 18.9375 -15.75 18.9375 -13 18 C-9.69946106 16.65064797 -8.33047932 15.43588815 -6.640625 12.3046875 C-6.24746094 11.58925781 -5.85429688 10.87382813 -5.44921875 10.13671875 C-5.05347656 9.39035156 -4.65773438 8.64398438 -4.25 7.875 C-3.83878906 7.12089844 -3.42757812 6.36679688 -3.00390625 5.58984375 C-1.99264653 3.73194799 -0.99498595 1.86666168 0 0 Z " fill="#ED2147" transform="translate(126,88)"/>
<path d="M0 0 C0 6.27 0 12.54 0 19 C-3.40605474 20.70302737 -7.29224106 20.34779504 -11.0546875 20.5234375 C-14.48058226 21.07775999 -15.65535922 21.44324858 -18 24 C-18.42534879 27.05486413 -18.60488644 29.76425079 -18.609375 32.82421875 C-18.62591125 33.68561966 -18.64244751 34.54702057 -18.65948486 35.43452454 C-18.7080667 38.18558813 -18.72935789 40.93609862 -18.75 43.6875 C-18.77815124 45.55276236 -18.80807748 47.41799883 -18.83984375 49.28320312 C-18.91717168 53.85572564 -18.95759375 58.42648631 -19 63 C-25.93 63 -32.86 63 -40 63 C-40 42.54 -40 22.08 -40 1 C-33.73 1 -27.46 1 -21 1 C-20.34 3.64 -19.68 6.28 -19 9 C-18.29875 8.071875 -17.5975 7.14375 -16.875 6.1875 C-11.80578528 0.18111953 -8.00336713 0 0 0 Z " fill="#EE264C" transform="translate(258,104)"/>
<path d="M0 0 C25.05493711 3.81094513 25.05493711 3.81094513 29.2109375 8.48828125 C32.80128622 11.7216065 35.64420176 12.15751982 40.3125 12.8125 C41.05306641 12.93302734 41.79363281 13.05355469 42.55664062 13.17773438 C44.36826565 13.46993196 46.18383429 13.73749896 48 14 C48 14.66 48 15.32 48 16 C47.41210693 16.02280029 46.82421387 16.04560059 46.21850586 16.0690918 C31.30840347 16.8440391 23.307181 19.71206035 12.88330078 30.23046875 C9.57229175 33.3414609 5.8631151 35.86983588 2.125 38.4375 C1.04629639 39.18326294 1.04629639 39.18326294 -0.05419922 39.9440918 C-2.03121643 41.30343491 -4.01518132 42.65208898 -6 44 C-6.99128906 44.68707031 -7.98257813 45.37414063 -9.00390625 46.08203125 C-14.72028689 50 -14.72028689 50 -17 50 C-15.62738886 46.92345779 -14.02954579 44.84186187 -11.6875 42.4375 C-7.14124833 37.38926637 -4.37594719 31.36395084 -2.33984375 24.90625 C-0.15397535 21.79632645 3.23366519 20.70789854 6.625 19.25 C7.33140625 18.93417969 8.0378125 18.61835938 8.765625 18.29296875 C10.50533624 17.51715158 12.25203087 16.757028 14 16 C11.70653827 11.67019108 9.97894221 8.44938608 5.875 5.625 C5.19179687 5.14289062 4.50859375 4.66078125 3.8046875 4.1640625 C2.00695673 2.95806049 2.00695673 2.95806049 0 2 C0 1.34 0 0.68 0 0 Z " fill="#ED2247" transform="translate(166,7)"/>
<path d="M0 0 C1.03930664 0.15662109 1.03930664 0.15662109 2.09960938 0.31640625 C3.79742614 0.57400604 5.49276109 0.84787288 7.1875 1.125 C6.16467704 4.42076287 5.15828725 5.1413356 2.0859375 6.859375 C-2.02385938 8.4284542 -5.83425792 8.50074837 -10.1875 8.375 C-11.31393921 8.36617798 -11.31393921 8.36617798 -12.46313477 8.35717773 C-16.34672539 8.30033238 -19.93938761 7.98507004 -23.75 7.1875 C-27.67999381 6.63684828 -29.52040188 7.96237687 -32.6875 10.25 C-33.5125 10.89453125 -34.3375 11.5390625 -35.1875 12.203125 C-42.47131665 17.53591933 -50.77887053 20.72724196 -59.8125 20.125 C-65.5041964 18.92500985 -69.10627386 16.54299129 -72.69140625 11.9765625 C-74.23722391 9.42353961 -74.66826332 7.08185198 -74.8125 4.125 C-71.8125 5.125 -71.8125 5.125 -70.625 7.4375 C-68.16949649 11.078419 -65.01669364 12.88230169 -60.8125 14.125 C-59.4925 13.795 -58.1725 13.465 -56.8125 13.125 C-56.4825 10.155 -56.1525 7.185 -55.8125 4.125 C-54.8225 4.455 -53.8325 4.785 -52.8125 5.125 C-52.4825 7.765 -52.1525 10.405 -51.8125 13.125 C-43.56827314 10.50533913 -36.01700336 7.32950336 -29.8125 1.125 C-26.25377846 1.00600409 -22.75303688 1.08248815 -19.19726562 1.203125 C-14.61811044 1.31845814 -14.61811044 1.31845814 -10.2578125 0.0703125 C-6.74081074 -1.28929521 -3.61577446 -0.6020524 0 0 Z " fill="#ED1C42" transform="translate(109.8125,65.875)"/>
<path d="M0 0 C1.82421875 2.65234375 1.82421875 2.65234375 3.6875 5.9375 C4.31011719 7.01902344 4.93273437 8.10054687 5.57421875 9.21484375 C7 12 7 12 7 14 C7.78503906 13.79503906 8.57007813 13.59007813 9.37890625 13.37890625 C10.42949219 13.10949219 11.48007813 12.84007813 12.5625 12.5625 C13.59503906 12.29566406 14.62757813 12.02882813 15.69140625 11.75390625 C29.76663318 8.54668217 49.45728587 7.08247659 62.421875 14.359375 C66.27514338 17.01020502 68.88738941 19.27140501 70 24 C69.29423828 23.47599609 69.29423828 23.47599609 68.57421875 22.94140625 C67.64029297 22.25884766 67.64029297 22.25884766 66.6875 21.5625 C66.07261719 21.11003906 65.45773438 20.65757813 64.82421875 20.19140625 C59.37094042 16.62984332 52.23139146 17.59536419 46 18 C42.7855965 18.73914091 40.05995457 19.7338119 37 21 C38.15173355 18.53199953 39.04783565 16.95216435 41 15 C28.45895862 14.36944485 17.19839573 16.20036819 5 19 C3.01208727 16.75722666 1.0347098 14.50651246 -0.9375 12.25 C-1.78344727 11.29867187 -1.78344727 11.29867187 -2.64648438 10.328125 C-3.18466797 9.709375 -3.72285156 9.090625 -4.27734375 8.453125 C-4.77484131 7.88754883 -5.27233887 7.32197266 -5.78491211 6.73925781 C-7.11613452 4.83376687 -7.58027466 3.2704314 -8 1 C-3.375 -1.125 -3.375 -1.125 0 0 Z " fill="#EE2B4C" transform="translate(153,61)"/>
<path d="M0 0 C14.244179 6.80398128 26.5016958 13.9648718 37 26 C37 26.66 37 27.32 37 28 C25.58348264 27.42917413 16.45547466 23.42668286 8.203125 15.48046875 C4.32748796 11.11694123 0 6.02982995 0 0 Z " fill="#ED2347" transform="translate(68,14)"/>
<path d="M0 0 C6.93 0 13.86 0 21 0 C21 15.18 21 30.36 21 46 C20.34 45.67 19.68 45.34 19 45 C19 30.81 19 16.62 19 2 C13.72 2 8.44 2 3 2 C3 18.17 3 34.34 3 51 C-0.375 46.5 -0.375 46.5 -0.34057617 42.23144531 C-0.34034958 41.29077209 -0.34012299 40.35009888 -0.33988953 39.38092041 C-0.32440567 38.37349792 -0.30892181 37.36607544 -0.29296875 36.328125 C-0.28872391 35.29057068 -0.28447906 34.25301636 -0.28010559 33.184021 C-0.26332223 29.87241592 -0.22566992 26.56142093 -0.1875 23.25 C-0.17245275 21.00391504 -0.15876442 18.75782054 -0.14648438 16.51171875 C-0.11597257 11.00738876 -0.05724891 5.50437671 0 0 Z " fill="#EF4361" transform="translate(263,105)"/>
<path d="M0 0 C3 1 3 1 4.1875 3.3125 C6.64300351 6.953419 9.79580636 8.75730169 14 10 C15.32 9.67 16.64 9.34 18 9 C18.33 6.03 18.66 3.06 19 0 C19.99 0.33 20.98 0.66 22 1 C22.33 3.64 22.66 6.28 23 9 C25.97 8.34 28.94 7.68 32 7 C31.34 8.32 30.68 9.64 30 11 C30.33 11.66 30.66 12.32 31 13 C23.29724491 15.93438289 16.80561162 17.35781063 8.9296875 14.109375 C5.45755872 12.11325238 3.06340094 9.40784684 1 6 C0.125 2.5625 0.125 2.5625 0 0 Z " fill="#EE3152" transform="translate(35,70)"/>
<path d="M0 0 C2.86392726 2.37670312 4.50064247 4.4089805 5.375 8.125 C4.90449219 7.77566406 4.43398437 7.42632812 3.94921875 7.06640625 C3.32660156 6.61136719 2.70398438 6.15632813 2.0625 5.6875 C1.44761719 5.23503906 0.83273438 4.78257813 0.19921875 4.31640625 C-5.25405958 0.75484332 -12.39360854 1.72036419 -18.625 2.125 C-21.8394035 2.86414091 -24.56504543 3.8588119 -27.625 5.125 C-26.47326645 2.65699953 -25.57716435 1.07716435 -23.625 -0.875 C-30.555 -1.37 -30.555 -1.37 -37.625 -1.875 C-37.625 -2.205 -37.625 -2.535 -37.625 -2.875 C-29.705 -3.37 -29.705 -3.37 -21.625 -3.875 C-29.545 -3.875 -37.465 -3.875 -45.625 -3.875 C-45.625 -4.205 -45.625 -4.535 -45.625 -4.875 C-31.24962301 -7.33368517 -12.46138366 -8.57272493 0 0 Z " fill="#F04765" transform="translate(217.625,76.875)"/>
<path d="M0 0 C2.75 -0.375 2.75 -0.375 6 0 C8.375 3 8.375 3 10 6 C10.66 5.01 11.32 4.02 12 3 C11.34 3 10.68 3 10 3 C10 2.01 10 1.02 10 0 C12.31 0 14.62 0 17 0 C17 0.99 17 1.98 17 3 C16.34 3 15.68 3 15 3 C15 6.96 15 10.92 15 15 C9.85139294 13.71284823 9.13538553 12.09341999 6 8 C5.67 9.32 5.34 10.64 5 12 C5.66 12 6.32 12 7 12 C7 12.99 7 13.98 7 15 C4.69 15 2.38 15 0 15 C0 14.01 0 13.02 0 12 C0.66 12 1.32 12 2 12 C2 9.03 2 6.06 2 3 C1.34 3 0.68 3 0 3 C0 2.01 0 1.02 0 0 Z M11 7 C12 9 12 9 12 9 Z " fill="#695A79" transform="translate(402,181)"/>
<path d="M0 0 C2.64 0 5.28 0 8 0 C8 0.99 8 1.98 8 3 C7.34 3 6.68 3 6 3 C6.33 5.64 6.66 8.28 7 11 C7.99 11 8.98 11 10 11 C10.0309375 9.1128125 10.0309375 9.1128125 10.0625 7.1875 C10.07410156 6.47980469 10.08570313 5.77210938 10.09765625 5.04296875 C10.08263217 2.79694539 10.08263217 2.79694539 9 0 C11.64 0 14.28 0 17 0 C17 0.99 17 1.98 17 3 C16.34 3 15.68 3 15 3 C15.03480469 3.61488281 15.06960938 4.22976562 15.10546875 4.86328125 C15.13253906 5.67152344 15.15960938 6.47976562 15.1875 7.3125 C15.22230469 8.11300781 15.25710938 8.91351563 15.29296875 9.73828125 C15 12 15 12 13.70703125 13.765625 C10.84051468 15.8384379 8.39859283 15.4248241 5 15 C2.15284249 12.72227399 1.80847245 10.39890499 1.375 6.9375 C1.25125 5.638125 1.1275 4.33875 1 3 C0.67 2.01 0.34 1.02 0 0 Z " fill="#716280" transform="translate(342,181)"/>
<path d="M0 0 C1.9375 1.6875 1.9375 1.6875 3 4 C2.88081199 7.39685818 2.58128695 9.94000615 0.9375 12.9375 C-2.26492585 14.69366901 -5.49690726 14.62026592 -9 14 C-11.5 12.4375 -11.5 12.4375 -13 10 C-13.5 6.5 -13.5 6.5 -13 3 C-9.06555639 -2.15547783 -5.80211266 -2.53842429 0 0 Z M-7 2 C-9.2491908 3.82703227 -9.2491908 3.82703227 -9.25 6.5 C-9.2491908 9.17296773 -9.2491908 9.17296773 -7 11 C-3.69316534 10.71016731 -3.69316534 10.71016731 -1 9 C-0.7499227 6.54190002 -0.7499227 6.54190002 -1 4 C-1.66 3.34 -2.32 2.68 -3 2 C-4.32 2 -5.64 2 -7 2 Z " fill="#5D4C6E" transform="translate(325,182)"/>
<path d="M0 0 C3.96 0 7.92 0 12 0 C12.33 1.32 12.66 2.64 13 4 C11.68 4.33 10.36 4.66 9 5 C9 4.34 9 3.68 9 3 C7.68 3 6.36 3 5 3 C5 3.99 5 4.98 5 6 C6.98 6 8.96 6 11 6 C10.67 6.99 10.34 7.98 10 9 C8.35 9 6.7 9 5 9 C5 9.99 5 10.98 5 12 C6.32 12 7.64 12 9 12 C9 11.34 9 10.68 9 10 C10.32 10.33 11.64 10.66 13 11 C12.67 12.32 12.34 13.64 12 15 C8.04 15 4.08 15 0 15 C0 14.01 0 13.02 0 12 C0.66 12 1.32 12 2 12 C1.814375 10.88625 1.62875 9.7725 1.4375 8.625 C1 5 1 5 2 3 C1.34 3 0.68 3 0 3 C0 2.01 0 1.02 0 0 Z " fill="#59496A" transform="translate(421,181)"/>
<path d="M0 0 C2.59191186 1.69814915 2.96408796 2.8820033 3.875 5.875 C4.02405268 9.60131711 3.25133987 11.08159647 1 14 C-2.09173752 15.54586876 -4.59429552 15.29359521 -8 15 C-10.4375 13.4375 -10.4375 13.4375 -12 11 C-12.46918683 7.24650538 -12.53136381 4.96151547 -10.6875 1.625 C-7.29444212 -1.64238907 -4.28933391 -1.07233348 0 0 Z M-7 3 C-9.31543207 5.76988076 -9.31543207 5.76988076 -8.6875 8.625 C-8.2258486 10.93501965 -8.2258486 10.93501965 -7 12 C-4.54207971 12.33343551 -4.54207971 12.33343551 -2 12 C0.31543207 9.23011924 0.31543207 9.23011924 -0.3125 6.375 C-0.7741514 4.06498035 -0.7741514 4.06498035 -2 3 C-4.45792029 2.66656449 -4.45792029 2.66656449 -7 3 Z " fill="#5D4B6E" transform="translate(397,181)"/>
<path d="M0 0 C1.3303125 0.4021875 1.3303125 0.4021875 2.6875 0.8125 C3.0175 2.1325 3.3475 3.4525 3.6875 4.8125 C2.3675 5.1425 1.0475 5.4725 -0.3125 5.8125 C-0.3125 5.1525 -0.3125 4.4925 -0.3125 3.8125 C-1.6325 3.8125 -2.9525 3.8125 -4.3125 3.8125 C-4.3125 4.4725 -4.3125 5.1325 -4.3125 5.8125 C-2.889375 6.245625 -2.889375 6.245625 -1.4375 6.6875 C1.6875 7.8125 1.6875 7.8125 3.6875 9.8125 C3.13194444 14.36805556 3.13194444 14.36805556 1.6875 15.8125 C0.16821962 15.88429964 -1.35417482 15.89642007 -2.875 15.875 C-3.70128906 15.86597656 -4.52757812 15.85695312 -5.37890625 15.84765625 C-6.33603516 15.83025391 -6.33603516 15.83025391 -7.3125 15.8125 C-7.6425 14.4925 -7.9725 13.1725 -8.3125 11.8125 C-6.9925 11.4825 -5.6725 11.1525 -4.3125 10.8125 C-4.3125 11.4725 -4.3125 12.1325 -4.3125 12.8125 C-2.9925 12.8125 -1.6725 12.8125 -0.3125 12.8125 C-1.22436469 10.47763833 -1.22436469 10.47763833 -4.3125 9.375 C-7.3125 7.8125 -7.3125 7.8125 -8.3125 4.8125 C-4.12788462 -0.23365385 -4.12788462 -0.23365385 0 0 Z " fill="#786986" transform="translate(443.3125,180.1875)"/>
<path d="M0 0 C0 1.65 0 3.3 0 5 C-2.38564077 4.42415568 -4.66682784 3.77772405 -7 3 C-7 3.66 -7 4.32 -7 5 C-6.030625 5.309375 -5.06125 5.61875 -4.0625 5.9375 C-1 7 -1 7 0 8 C0.1875 10.4375 0.1875 10.4375 0 13 C-2 15 -2 15 -4.1640625 15.1953125 C-4.97617187 15.17210937 -5.78828125 15.14890625 -6.625 15.125 C-7.44226563 15.10695312 -8.25953125 15.08890625 -9.1015625 15.0703125 C-9.72804688 15.04710937 -10.35453125 15.02390625 -11 15 C-11 13.35 -11 11.7 -11 10 C-10.01 10 -9.02 10 -8 10 C-8 10.66 -8 11.32 -8 12 C-6.35 12 -4.7 12 -3 12 C-3 11.34 -3 10.68 -3 10 C-3.94875 9.71125 -4.8975 9.4225 -5.875 9.125 C-9 8 -9 8 -11 6 C-10.875 3.5 -10.875 3.5 -10 1 C-6.71753539 -1.67460079 -3.93568492 -0.89447384 0 0 Z " fill="#665676" transform="translate(310,181)"/>
<path d="M0 0 C0 1.65 0 3.3 0 5 C-1.32 4.67 -2.64 4.34 -4 4 C-4 3.34 -4 2.68 -4 2 C-5.98 2.33 -7.96 2.66 -10 3 C-9.34 5.31 -8.68 7.62 -8 10 C-5.36 10 -2.72 10 0 10 C-0.33 11.32 -0.66 12.64 -1 14 C-8.99180328 14.6147541 -8.99180328 14.6147541 -12.5625 12.4375 C-14.56331202 9.04481874 -14.55326548 6.87285839 -14 3 C-9.70210243 -2.63172785 -6.35352935 -2.03792451 0 0 Z " fill="#716280" transform="translate(374,182)"/>
<path d="M0 0 C2.64 0 5.28 0 8 0 C8 0.99 8 1.98 8 3 C7.34 3 6.68 3 6 3 C6 5.97 6 8.94 6 12 C7.32 12 8.64 12 10 12 C10 11.34 10 10.68 10 10 C10.99 10 11.98 10 13 10 C13 11.65 13 13.3 13 15 C8.71 15 4.42 15 0 15 C0 14.01 0 13.02 0 12 C0.66 12 1.32 12 2 12 C2 9.03 2 6.06 2 3 C1.34 3 0.68 3 0 3 C0 2.01 0 1.02 0 0 Z " fill="#6B5C7A" transform="translate(329,181)"/>
<path d="M0 0 C2.9375 0.75 2.9375 0.75 4.9375 2.75 C5.3125 6.1875 5.3125 6.1875 4.9375 9.75 C3.3125 11.75 3.3125 11.75 0.9375 12.75 C-2.1875 12.625 -2.1875 12.625 -5.0625 11.75 C-7.0625 8.75 -7.0625 8.75 -6.875 5.1875 C-5.81721331 0.71224863 -4.63605151 -0.37845318 0 0 Z M-5.0625 3.75 C-5.0625 5.4 -5.0625 7.05 -5.0625 8.75 C-4.4025 7.76 -3.7425 6.77 -3.0625 5.75 C-3.7225 5.09 -4.3825 4.43 -5.0625 3.75 Z M1.9375 3.75 C1.9375 5.4 1.9375 7.05 1.9375 8.75 C2.2675 8.75 2.5975 8.75 2.9375 8.75 C2.9375 7.1 2.9375 5.45 2.9375 3.75 C2.6075 3.75 2.2775 3.75 1.9375 3.75 Z M-1.0625 8.75 C-1.3925 9.41 -1.7225 10.07 -2.0625 10.75 C-1.0725 10.42 -0.0825 10.09 0.9375 9.75 C0.2775 9.42 -0.3825 9.09 -1.0625 8.75 Z " fill="#796B87" transform="translate(457.0625,104.25)"/>
<path d="M0 0 C0.99 0 1.98 0 3 0 C3 0.66 3 1.32 3 2 C4.32 2.33 5.64 2.66 7 3 C5.68 3 4.36 3 3 3 C2.67 3.99 2.34 4.98 2 6 C-0.0827738 7.54537749 -2.10624679 8.90852139 -4.3125 10.25 C-4.89451172 10.62640625 -5.47652344 11.0028125 -6.07617188 11.390625 C-10.37242488 14.03746717 -10.37242488 14.03746717 -13.35546875 13.859375 C-15 13 -15 13 -16 11 C-15.01 10.67 -14.02 10.34 -13 10 C-11.98876512 9.01136255 -10.99029194 8.00961471 -10 7 C-8.47951205 5.92765587 -6.93627902 4.88703428 -5.375 3.875 C-2.54227678 2.11973445 -2.54227678 2.11973445 0 0 Z " fill="#EF3E5D" transform="translate(79,68)"/>
<path d="M0 0 C0.71019287 0.03029297 1.42038574 0.06058594 2.15209961 0.09179688 C5.41382056 0.2298142 8.67565587 0.36492643 11.9375 0.5 C13.05447266 0.54769531 14.17144531 0.59539062 15.32226562 0.64453125 C21.55484826 0.90041441 27.76223786 1.05291845 34 1 C32.68 1.33 31.36 1.66 30 2 C30 2.66 30 3.32 30 4 C26.81251971 4.02932572 23.62507472 4.04690739 20.4375 4.0625 C19.09461914 4.07506836 19.09461914 4.07506836 17.72460938 4.08789062 C12.70002057 4.10629571 7.95182709 3.86266398 3 3 C3 2.34 3 1.68 3 1 C2.01 0.67 1.02 0.34 0 0 Z " fill="#EF395A" transform="translate(397,164)"/>
<path d="M0 0 C2.97 0 5.94 0 9 0 C9.33 0.99 9.66 1.98 10 3 C15.94 2.505 15.94 2.505 22 2 C21.01 3.485 21.01 3.485 20 5 C17.11987249 5.30411284 14.50151952 5.41800444 11.625 5.375 C10.47257812 5.39240234 10.47257812 5.39240234 9.296875 5.41015625 C5.7184407 5.39158306 3.58064164 5.34838498 0.4609375 3.4765625 C-0.02117187 2.98929687 -0.50328125 2.50203125 -1 2 C-0.67 1.34 -0.34 0.68 0 0 Z " fill="#EE324F" transform="translate(88,69)"/>
<path d="M0 0 C2.31 0 4.62 0 7 0 C7 0.99 7 1.98 7 3 C6.34 3 5.68 3 5 3 C5 5.97 5 8.94 5 12 C5.66 12 6.32 12 7 12 C7 12.99 7 13.98 7 15 C4.69 15 2.38 15 0 15 C0 14.01 0 13.02 0 12 C0.66 12 1.32 12 2 12 C2 9.03 2 6.06 2 3 C1.34 3 0.68 3 0 3 C0 2.01 0 1.02 0 0 Z " fill="#564667" transform="translate(376,181)"/>
<path d="M0 0 C9.41002278 0.96355353 9.41002278 0.96355353 14 2 C14 2.66 14 3.32 14 4 C6.41 4.99 -1.18 5.98 -9 7 C-9 6.01 -9 5.02 -9 4 C-6.03 3.34 -3.06 2.68 0 2 C0 1.34 0 0.68 0 0 Z " fill="#EF435E" transform="translate(200,19)"/>
<path d="M0 0 C0.86560547 0.00451172 1.73121094 0.00902344 2.62304688 0.01367188 C4.72789539 0.02530087 6.83270758 0.04322927 8.9375 0.0625 C5.23819321 2.52870453 2.16920935 2.46933016 -2.125 2.625 C-7.2502349 2.6345361 -7.2502349 2.6345361 -12.0625 4.0625 C-13.76952735 4.13246014 -15.47918003 4.14690154 -17.1875 4.125 C-18.09757813 4.11597656 -19.00765625 4.10695313 -19.9453125 4.09765625 C-20.64398438 4.08605469 -21.34265625 4.07445313 -22.0625 4.0625 C-19.13318243 0.63740763 -16.91966401 0.5337973 -12.59423828 0.18408203 C-8.39296933 -0.01767611 -4.20521848 -0.04241105 0 0 Z " fill="#EA0726" transform="translate(190.0625,71.9375)"/>
<path d="M0 0 C0.99 0.33 1.98 0.66 3 1 C3.33 3.64 3.66 6.28 4 9 C6.97 8.34 9.94 7.68 13 7 C12.34 8.32 11.68 9.64 11 11 C11.33 11.66 11.66 12.32 12 13 C7.56923077 15.09230769 7.56923077 15.09230769 4.6875 14.625 C4.130625 14.41875 3.57375 14.2125 3 14 C3.33 13.67 3.66 13.34 4 13 C3.34 12.67 2.68 12.34 2 12 C1.3671875 9.27734375 1.3671875 9.27734375 0.875 5.9375 C0.70742188 4.83277344 0.53984375 3.72804688 0.3671875 2.58984375 C0.24601562 1.73519531 0.12484375 0.88054687 0 0 Z " fill="#EF4161" transform="translate(54,70)"/>
<path d="M0 0 C1.125 3.75 1.125 3.75 0 6 C0.99 6 1.98 6 3 6 C1.69467452 9.91597644 0.02734726 10.53830346 -3.4375 12.6875 C-4.42621094 13.31011719 -5.41492188 13.93273438 -6.43359375 14.57421875 C-9 16 -9 16 -11 16 C-9.20893191 11.98800747 -6.6085779 9.20252518 -3.65625 6 C-2.06105306 4.07372445 -1.01567082 2.27510263 0 0 Z " fill="#EF3D5B" transform="translate(160,41)"/>
<path d="M0 0 C0.33 0.66 0.66 1.32 1 2 C2.0725 1.649375 3.145 1.29875 4.25 0.9375 C8.92307692 -0.23076923 8.92307692 -0.23076923 12 1 C11.01 1.495 11.01 1.495 10 2 C11.32 2.66 12.64 3.32 14 4 C6.575 5.485 6.575 5.485 -1 7 C-1.33 5.68 -1.66 4.36 -2 3 C-1.34 2.01 -0.68 1.02 0 0 Z " fill="#EF3858" transform="translate(159,73)"/>
<path d="M0 0 C0.66 0 1.32 0 2 0 C2 1.65 2 3.3 2 5 C3.8871875 5.2475 3.8871875 5.2475 5.8125 5.5 C6.87404297 5.63921875 6.87404297 5.63921875 7.95703125 5.78125 C10.15471706 6.053233 10.15471706 6.053233 13 6 C12.67 7.32 12.34 8.64 12 10 C10.5629191 10.05422947 9.12524538 10.09289723 7.6875 10.125 C6.88699219 10.14820313 6.08648437 10.17140625 5.26171875 10.1953125 C3 10 3 10 0 8 C-0.40843923 5.28796348 -0.13336867 2.7562858 0 0 Z " fill="#5C4A6D" transform="translate(361,186)"/>
<path d="M0 0 C0.66 0 1.32 0 2 0 C2.66 1.65 3.32 3.3 4 5 C-3.59 5 -11.18 5 -19 5 C-19 4.34 -19 3.68 -19 3 C-12.73 2.67 -6.46 2.34 0 2 C0 1.34 0 0.68 0 0 Z " fill="#F04865" transform="translate(387,162)"/>
<path d="M0 0 C8.91 1.485 8.91 1.485 18 3 C18 3.33 18 3.66 18 4 C15.69 4 13.38 4 11 4 C11.66 5.65 12.32 7.3 13 9 C9.41648654 9 8.67894268 8.24028157 5.9375 6.0625 C3.10515084 3.81660545 3.10515084 3.81660545 0 2 C0 1.34 0 0.68 0 0 Z " fill="#F04E69" transform="translate(166,7)"/>
<path d="M0 0 C0.66 0.66 1.32 1.32 2 2 C2.66 1.34 3.32 0.68 4 0 C3.41018767 6.25201072 3.41018767 6.25201072 1.9375 8.9375 C-1.27572893 10.69959328 -4.3842174 10.17782537 -8 10 C-8.33 9.01 -8.66 8.02 -9 7 C-8.34 6.34 -7.68 5.68 -7 5 C-4.375 5.375 -4.375 5.375 -2 6 C-1.34 4.02 -0.68 2.04 0 0 Z " fill="#6C5C7B" transform="translate(324,186)"/>
<path d="M0 0 C2.375 0.5625 2.375 0.5625 5 2 C6.3125 5.625 6.3125 5.625 7 9 C4 11 4 11 0 11 C-0.19406478 9.35492782 -0.38007935 7.70890406 -0.5625 6.0625 C-0.66691406 5.14597656 -0.77132813 4.22945313 -0.87890625 3.28515625 C-0.91886719 2.53105469 -0.95882813 1.77695313 -1 1 C-0.67 0.67 -0.34 0.34 0 0 Z M2 7 C1.67 7.66 1.34 8.32 1 9 C1.99 8.67 2.98 8.34 4 8 C3.34 7.67 2.68 7.34 2 7 Z " fill="#8B7E97" transform="translate(454,106)"/>
<path d="M0 0 C2.6274838 1.28680869 5.25196683 2.57917678 7.875 3.875 C8.62136719 4.23980469 9.36773437 4.60460937 10.13671875 4.98046875 C10.85214844 5.33496094 11.56757812 5.68945312 12.3046875 6.0546875 C12.96452637 6.37937012 13.62436523 6.70405273 14.30419922 7.03857422 C16 8 16 8 18 10 C13.86043846 9.39124095 10.70717496 7.89477831 7 6 C6.34 6 5.68 6 5 6 C4.67 7.32 4.34 8.64 4 10 C0 3.375 0 3.375 0 0 Z " fill="#F0516B" transform="translate(68,14)"/>
<path d="M0 0 C0.20625 1.27875 0.4125 2.5575 0.625 3.875 C1.08483533 6.07813968 1.08483533 6.07813968 2 8 C4.99428144 9.61147442 4.99428144 9.61147442 8 10 C8 10.66 8 11.32 8 12 C1.75 12.48076923 1.75 12.48076923 -1.4375 10.4375 C-3.5248128 7.18129203 -3.2915423 4.79004984 -3 1 C-1 0 -1 0 0 0 Z " fill="#59476A" transform="translate(388,184)"/>
<path d="M0 0 C2.64 0 5.28 0 8 0 C8 0.99 8 1.98 8 3 C7.34 3 6.68 3 6 3 C6.061875 4.27875 6.12375 5.5575 6.1875 6.875 C6.29296875 9.0546875 6.29296875 9.0546875 6 11 C5.01 11.66 4.02 12.32 3 13 C2.86722656 12.31292969 2.73445313 11.62585938 2.59765625 10.91796875 C2.42105469 10.01691406 2.24445313 9.11585938 2.0625 8.1875 C1.88847656 7.29417969 1.71445312 6.40085938 1.53515625 5.48046875 C1.02258847 2.88602829 1.02258847 2.88602829 0 0 Z " fill="#786B86" transform="translate(342,181)"/>
<path d="M0 0 C0 5.94 0 11.88 0 18 C-2.97 18 -5.94 18 -9 18 C-9 17.67 -9 17.34 -9 17 C-6.69 17 -4.38 17 -2 17 C-2 12.05 -2 7.1 -2 2 C-3.32 1.67 -4.64 1.34 -6 1 C-3 0 -3 0 0 0 Z " fill="#EB0C32" transform="translate(257,104)"/>
<path d="M0 0 C3.77068832 -0.086985 7.54111932 -0.14038579 11.3125 -0.1875 C12.38435547 -0.21263672 13.45621094 -0.23777344 14.56054688 -0.26367188 C15.58857422 -0.27333984 16.61660156 -0.28300781 17.67578125 -0.29296875 C19.0975769 -0.31653442 19.0975769 -0.31653442 20.5480957 -0.34057617 C23.39771408 0.05524357 24.24976105 0.77824719 26 3 C22.97893247 2.85815167 19.95820903 2.71164333 16.9375 2.5625 C16.08994141 2.52318359 15.24238281 2.48386719 14.36914062 2.44335938 C9.51999791 2.19996611 4.79371788 1.77401958 0 1 C0 0.67 0 0.34 0 0 Z " fill="#EE3453" transform="translate(172,104)"/>
<path d="M0 0 C5.01113235 1.4317521 6.94469549 3.98445693 10 8 C9.67 8.66 9.34 9.32 9 10 C7.53515625 8.73046875 6.0703125 7.4609375 4.60546875 6.19140625 C1.31101485 3.74661686 -2.22684472 3.73561384 -6.1875 3.4375 C-7.81751953 3.31181641 -7.81751953 3.31181641 -9.48046875 3.18359375 C-10.31191406 3.12300781 -11.14335937 3.06242187 -12 3 C-12 2.67 -12 2.34 -12 2 C-11.21753906 1.93941406 -10.43507812 1.87882812 -9.62890625 1.81640625 C-8.61699219 1.73261719 -7.60507813 1.64882812 -6.5625 1.5625 C-5.55316406 1.48128906 -4.54382813 1.40007812 -3.50390625 1.31640625 C-1.06359221 1.26788532 -1.06359221 1.26788532 0 0 Z " fill="#F05565" transform="translate(213,75)"/>
<path d="M0 0 C3.96 0 7.92 0 12 0 C12.33 1.32 12.66 2.64 13 4 C11.68 4.33 10.36 4.66 9 5 C9 4.34 9 3.68 9 3 C7.68 3 6.36 3 5 3 C5 3.99 5 4.98 5 6 C6.98 6 8.96 6 11 6 C10.67 6.66 10.34 7.32 10 8 C7.03 7.505 7.03 7.505 4 7 C4 5.35 4 3.7 4 2 C2.68 1.34 1.36 0.68 0 0 Z " fill="#7A6D87" transform="translate(421,181)"/>
<path d="M0 0 C0.66 0.33 1.32 0.66 2 1 C1.04956626 2.33897583 0.08940853 3.67105427 -0.875 5 C-1.40867188 5.7425 -1.94234375 6.485 -2.4921875 7.25 C-2.98976562 7.8275 -3.48734375 8.405 -4 9 C-4.66 9 -5.32 9 -6 9 C-6.33 13.62 -6.66 18.24 -7 23 C-7.33 23 -7.66 23 -8 23 C-8.44983211 15.5027982 -8.62094355 9.22890701 -4 3 C-1.75 1 -1.75 1 0 0 Z " fill="#F15973" transform="translate(163,131)"/>
<path d="M0 0 C-1.28519565 2.86697492 -2.57129254 4.97607712 -5 7 C-5.66 7 -6.32 7 -7 7 C-7 7.66 -7 8.32 -7 9 C-8.32 9 -9.64 9 -11 9 C-11 6.69 -11 4.38 -11 2 C-10.67 2 -10.34 2 -10 2 C-9.67 3.65 -9.34 5.3 -9 7 C-8.21625 6.030625 -7.4325 5.06125 -6.625 4.0625 C-3.34042553 0 -3.34042553 0 0 0 Z " fill="#EF3F5E" transform="translate(248,106)"/>
<path d="M0 0 C3 1 3 1 4.375 3.3125 C6.19131134 6.31639952 8.18448626 7.94543592 11 10 C10.01 10.33 9.02 10.66 8 11 C7.67 10.01 7.34 9.02 7 8 C5.68 8.33 4.36 8.66 3 9 C0 2.25 0 2.25 0 0 Z " fill="#F1566E" transform="translate(35,70)"/>
<path d="M0 0 C0.99 0 1.98 0 3 0 C3 0.66 3 1.32 3 2 C4.32 2.33 5.64 2.66 7 3 C5.68 3 4.36 3 3 3 C2.67 3.99 2.34 4.98 2 6 C0.35 6.33 -1.3 6.66 -3 7 C-2.25 2.25 -2.25 2.25 0 0 Z " fill="#ED2444" transform="translate(79,68)"/>
<path d="M0 0 C0.6875 2.0625 0.6875 2.0625 1 4 C-0.32 3.67 -1.64 3.34 -3 3 C-3.66 4.32 -4.32 5.64 -5 7 C-6.5 5.6875 -6.5 5.6875 -8 4 C-8 3.01 -8 2.02 -8 1 C-3.375 -1.125 -3.375 -1.125 0 0 Z " fill="#F05068" transform="translate(153,61)"/>
<path d="M0 0 C4.95 0.33 9.9 0.66 15 1 C15 1.33 15 1.66 15 2 C12.69 2 10.38 2 8 2 C8 2.66 8 3.32 8 4 C8.66 4.66 9.32 5.32 10 6 C7.36 5.67 4.72 5.34 2 5 C2 3.68 2 2.36 2 1 C1.34 0.67 0.68 0.34 0 0 Z " fill="#F15673" transform="translate(80,67)"/>
<path d="M0 0 C1.65 0 3.3 0 5 0 C5.33 1.65 5.66 3.3 6 5 C5.34 5 4.68 5 4 5 C4 5.66 4 6.32 4 7 C1.69 7 -0.62 7 -3 7 C-2.67 6.01 -2.34 5.02 -2 4 C-2 4.66 -2 5.32 -2 6 C-0.35 6 1.3 6 3 6 C1.515 3.03 1.515 3.03 0 0 Z " fill="#39244E" transform="translate(440,188)"/>
<path d="M0 0 C-0.66 1.32 -1.32 2.64 -2 4 C-2.78375 3.95875 -3.5675 3.9175 -4.375 3.875 C-7.16116119 3.71271266 -7.16116119 3.71271266 -9 6 C-9.66 4.68 -10.32 3.36 -11 2 C-6.97107804 -0.96244261 -4.82799816 -1.2350693 0 0 Z " fill="#857892" transform="translate(397,181)"/>
<path d="M0 0 C6.93 0 13.86 0 21 0 C20.34 1.65 19.68 3.3 19 5 C18.67 3.68 18.34 2.36 18 1 C12.06 1 6.12 1 0 1 C0 0.67 0 0.34 0 0 Z " fill="#F05671" transform="translate(366,105)"/>
<path d="M0 0 C1.65 0 3.3 0 5 0 C5 1.32 5 2.64 5 4 C4.34 4 3.68 4 3 4 C3 6.64 3 9.28 3 12 C3.99 12.33 4.98 12.66 6 13 C4.02 13 2.04 13 0 13 C0.66 12.67 1.32 12.34 2 12 C2 8.37 2 4.74 2 1 C1.34 0.67 0.68 0.34 0 0 Z " fill="#27143D" transform="translate(403,182)"/>
<path d="M0 0 C6.0546875 -0.1953125 6.0546875 -0.1953125 8 0 C8.66 0.66 9.32 1.32 10 2 C9.625 5.625 9.625 5.625 9 9 C8.67 9 8.34 9 8 9 C8 7.35 8 5.7 8 4 C7.01 3.67 6.02 3.34 5 3 C5 2.34 5 1.68 5 1 C3.35 1 1.7 1 0 1 C0 0.67 0 0.34 0 0 Z " fill="#422D55" transform="translate(317,182)"/>
<path d="M0 0 C0.33 0 0.66 0 1 0 C1.33 3.3 1.66 6.6 2 10 C3.98 10 5.96 10 8 10 C8 10.66 8 11.32 8 12 C5.66705225 12.04241723 3.33297433 12.04092937 1 12 C0 11 0 11 -0.09765625 8.49609375 C-0.08605469 7.48675781 -0.07445312 6.47742188 -0.0625 5.4375 C-0.05347656 4.42558594 -0.04445313 3.41367188 -0.03515625 2.37109375 C-0.02355469 1.58863281 -0.01195312 0.80617187 0 0 Z " fill="#3D2851" transform="translate(346,184)"/>
<path d="M0 0 C-0.99 0.495 -0.99 0.495 -2 1 C-0.68 1.66 0.64 2.32 2 3 C-2.455 3.495 -2.455 3.495 -7 4 C-7.33 2.68 -7.66 1.36 -8 0 C-4.94736336 -0.98120464 -3.05263664 -0.98120464 0 0 Z " fill="#F15772" transform="translate(171,74)"/>
<path d="M0 0 C0 0.66 0 1.32 0 2 C-2.2747813 3.38111722 -3.50171361 4.05694702 -6.1875 3.75 C-8 3 -8 3 -9 1 C-5.64919071 -1.10976881 -3.77897651 -1.0497157 0 0 Z " fill="#EC2041" transform="translate(72,78)"/>
<path d="M0 0 C1.18851563 0.10183594 2.37703125 0.20367188 3.6015625 0.30859375 C4.51679688 0.39238281 5.43203125 0.47617187 6.375 0.5625 C6.375 0.8925 6.375 1.2225 6.375 1.5625 C1.425 2.2225 -3.525 2.8825 -8.625 3.5625 C-8.625 2.5725 -8.625 1.5825 -8.625 0.5625 C-5.68113377 -0.90943312 -3.25109964 -0.28686173 0 0 Z " fill="#F15974" transform="translate(199.625,22.4375)"/>
<path d="M0 0 C2.97 0 5.94 0 9 0 C9.33 0.99 9.66 1.98 10 3 C6.7 2.67 3.4 2.34 0 2 C0 1.34 0 0.68 0 0 Z " fill="#EC113A" transform="translate(88,69)"/>
<path d="M0 0 C-0.60698743 4.12751449 -2.03810791 7.3321148 -4 11 C-4.33 9.68 -4.66 8.36 -5 7 C-4.34 7 -3.68 7 -3 7 C-3 5.35 -3 3.7 -3 2 C-3.66 1.67 -4.32 1.34 -5 1 C-2 0 -2 0 0 0 Z " fill="#695C80" transform="translate(160,32)"/>
<path d="M0 0 C-2.40436026 3.60654039 -3.94679607 3.85452932 -8 5 C-8 4.34 -8 3.68 -8 3 C-8.66 2.67 -9.32 2.34 -10 2 C-6.27511755 -0.66063032 -4.42132508 -1.38955931 0 0 Z " fill="#82748F" transform="translate(324,181)"/>
<path d="M0 0 C0.99 0.33 1.98 0.66 3 1 C3.22786458 3.01822917 3.45572917 5.03645833 3.68359375 7.0546875 C3.91292961 9.07404316 3.91292961 9.07404316 5 11 C4.01 11.33 3.02 11.66 2 12 C1.34 8.04 0.68 4.08 0 0 Z " fill="#F36B81" transform="translate(54,70)"/>
<path d="M0 0 C0 0.33 0 0.66 0 1 C-2.97851562 1.34179688 -2.97851562 1.34179688 -5.95703125 1.68359375 C-8.19396393 1.97170735 -8.19396393 1.97170735 -11 3 C-11.99 2.34 -12.98 1.68 -14 1 C-9.22426677 -1.61895048 -5.15565119 -0.83119431 0 0 Z " fill="#F36982" transform="translate(111,66)"/>
<path d="M0 0 C-0.33 0.66 -0.66 1.32 -1 2 C-5.95 2 -10.9 2 -16 2 C-16 1.67 -16 1.34 -16 1 C-14.0852312 0.63571223 -12.16807707 0.28394694 -10.25 -0.0625 C-9.18265625 -0.25972656 -8.1153125 -0.45695312 -7.015625 -0.66015625 C-4.25228095 -0.97156937 -2.59053383 -0.8991416 0 0 Z " fill="#7E7091" transform="translate(132,42)"/>
<path d="M0 0 C5.28137429 0.51525603 8.57221156 2.25477117 13 5 C10.34501768 6.0169313 9.30844625 6.13022151 6.640625 5.00390625 C5.85171875 4.52824219 5.0628125 4.05257813 4.25 3.5625 C3.45078125 3.08941406 2.6515625 2.61632812 1.828125 2.12890625 C1.22484375 1.75636719 0.6215625 1.38382813 0 1 C0 0.67 0 0.34 0 0 Z " fill="#EF415C" transform="translate(73,18)"/>
<path d="M0 0 C0.66 0.33 1.32 0.66 2 1 C-1.61328125 5.6875 -1.61328125 5.6875 -3 7 C-3.99 7 -4.98 7 -6 7 C-4.60667426 3.63279613 -3.0210714 2.0140476 0 0 Z " fill="#F04360" transform="translate(403,107)"/>
<path d="M0 0 C0.99 0 1.98 0 3 0 C3.66 0.66 4.32 1.32 5 2 C6.31747324 2.69748583 7.64914193 3.36959957 9 4 C6.1875 4.6875 6.1875 4.6875 3 5 C1.125 3.6875 1.125 3.6875 0 2 C0 1.34 0 0.68 0 0 Z " fill="#EC2040" transform="translate(39,78)"/>
<path d="M0 0 C1.9375 0.8125 1.9375 0.8125 4 2 C4.33 2.99 4.66 3.98 5 5 C2.03 4.67 -0.94 4.34 -4 4 C-2.68 2.68 -1.36 1.36 0 0 Z " fill="#F25B74" transform="translate(100,37)"/>
<path d="M0 0 C4.16138263 -0.08159574 7.9472484 0.01751476 12 1 C12 1.33 12 1.66 12 2 C3.57142857 3.28571429 3.57142857 3.28571429 -1 2 C-0.67 1.34 -0.34 0.68 0 0 Z " fill="#51406B" transform="translate(52,13)"/>
<path d="M0 0 C4.455 0.99 4.455 0.99 9 2 C9 2.66 9 3.32 9 4 C6.69 4 4.38 4 2 4 C1.34 2.68 0.68 1.36 0 0 Z " fill="#48355B" transform="translate(387,192)"/>
<path d="M0 0 C0.99 0.33 1.98 0.66 3 1 C2.67 1.99 2.34 2.98 2 4 C-4.93 3.505 -4.93 3.505 -12 3 C-12 2.67 -12 2.34 -12 2 C-11.21753906 1.93941406 -10.43507812 1.87882812 -9.62890625 1.81640625 C-8.61699219 1.73261719 -7.60507813 1.64882812 -6.5625 1.5625 C-5.55316406 1.48128906 -4.54382813 1.40007812 -3.50390625 1.31640625 C-1.06359221 1.26788532 -1.06359221 1.26788532 0 0 Z " fill="#F5899B" transform="translate(213,75)"/>
<path d="M0 0 C0.33 0.66 0.66 1.32 1 2 C1.66 2.33 2.32 2.66 3 3 C-2.75 7 -2.75 7 -5 7 C-3.70700306 4.11562221 -2.34058637 2.12780579 0 0 Z " fill="#F4788B" transform="translate(154,50)"/>
<path d="M0 0 C0.66 0 1.32 0 2 0 C2 2.64 2 5.28 2 8 C1.67 8 1.34 8 1 8 C1 6.35 1 4.7 1 3 C0.34 3 -0.32 3 -1 3 C-1 4.98 -1 6.96 -1 9 C-1.33 9 -1.66 9 -2 9 C-2.125 5.625 -2.125 5.625 -2 2 C-1.34 1.34 -0.68 0.68 0 0 Z " fill="#7C6E8A" transform="translate(362,183)"/>
<path d="M0 0 C1.22589844 0.15275391 1.22589844 0.15275391 2.4765625 0.30859375 C3.41628906 0.43427734 3.41628906 0.43427734 4.375 0.5625 C4.375 0.8925 4.375 1.2225 4.375 1.5625 C2.725 1.5625 1.075 1.5625 -0.625 1.5625 C-0.955 2.2225 -1.285 2.8825 -1.625 3.5625 C-3.5625 3.1875 -3.5625 3.1875 -5.625 2.5625 C-5.955 1.9025 -6.285 1.2425 -6.625 0.5625 C-4.10446405 -0.69776798 -2.7707902 -0.35624445 0 0 Z " fill="#2C164D" transform="translate(15.625,7.4375)"/>
<path d="M0 0 C0.33 0 0.66 0 1 0 C1 1.98 1 3.96 1 6 C-2.20062687 7.60031344 -4.72271806 6.03173691 -8 5 C-5 4 -5 4 -2.875 3.625 C-1.946875 3.315625 -1.946875 3.315625 -1 3 C-0.67 2.01 -0.34 1.02 0 0 Z " fill="#F04C6A" transform="translate(54,76)"/>
<path d="M0 0 C2.475 0.99 2.475 0.99 5 2 C2.06279492 3.52299523 -0.9168649 4.80100302 -4 6 C-2.84826645 3.53199953 -1.95216435 1.95216435 0 0 Z " fill="#F37084" transform="translate(194,76)"/>
<path d="M0 0 C3.0417096 0.28516028 4.39045802 1.26030535 7 3 C3.7 3 0.4 3 -3 3 C-2.01 2.01 -1.02 1.02 0 0 Z " fill="#ED2B4A" transform="translate(171,73)"/>
<path d="M0 0 C-0.33 0.99 -0.66 1.98 -1 3 C-5.455 2.01 -5.455 2.01 -10 1 C-5.64467851 -1.17766075 -4.53374042 -1.03039555 0 0 Z " fill="#5A4974" transform="translate(94,46)"/>
<path d="M0 0 C1.98 0 3.96 0 6 0 C5.34 1.32 4.68 2.64 4 4 C3.01 3.67 2.02 3.34 1 3 C0.67 2.01 0.34 1.02 0 0 Z " fill="#F04F68" transform="translate(111,67)"/>
<path d="M0 0 C0.66 0.33 1.32 0.66 2 1 C2.33 1.99 2.66 2.98 3 4 C1.35 4.33 -0.3 4.66 -2 5 C-1.125 1.125 -1.125 1.125 0 0 Z " fill="#ED2544" transform="translate(157,47)"/>
<path d="M0 0 C-1.13719419 3.41158256 -2.04342944 4.11854601 -5 6 C-5.66 6 -6.32 6 -7 6 C-5.52522876 2.59668175 -4.14385429 0 0 0 Z " fill="#EF3B58" transform="translate(174,39)"/>
</svg>
